<?xml version="1.0" standalone="no"?>
<!DOCTYPE svg PUBLIC "-//W3C//DTD SVG 20010904//EN"
 "http://www.w3.org/TR/2001/REC-SVG-20010904/DTD/svg10.dtd">
<svg version="1.0" xmlns="http://www.w3.org/2000/svg"
 width="1008.000000pt" height="1144.000000pt" viewBox="0 0 1008.000000 1144.000000"
 preserveAspectRatio="xMidYMid meet">

<g transform="translate(0.000000,1144.000000) scale(0.100000,-0.100000)"
fill="#991312" stroke="none">
<path d="M1770 10917 c-20 -17 -76 -68 -125 -112 -49 -44 -115 -103 -145 -131
-30 -27 -111 -99 -179 -160 -69 -60 -137 -120 -151 -134 -15 -14 -40 -36 -57
-50 -17 -14 -51 -44 -77 -68 l-46 -42 0 -451 0 -451 68 58 c57 50 103 91 156
139 9 8 259 232 302 270 6 6 33 30 60 55 27 25 92 83 144 129 52 46 109 95
125 111 17 15 98 87 180 160 83 73 166 147 185 164 75 68 243 219 423 379
l187 167 -507 0 -508 -1 -35 -32z"/>
<path d="M3653 10937 c-4 -7 -48 -48 -97 -91 -49 -44 -97 -86 -106 -95 -9 -9
-45 -41 -80 -71 -35 -30 -76 -66 -90 -80 -14 -14 -51 -46 -81 -71 -30 -26 -77
-68 -105 -95 -28 -27 -82 -76 -120 -109 -86 -75 -157 -138 -164 -145 -3 -3
-61 -55 -130 -115 -68 -61 -136 -121 -151 -135 -14 -14 -44 -40 -65 -59 -84
-72 -180 -158 -215 -191 -20 -19 -62 -57 -94 -85 -57 -49 -121 -106 -175 -155
-15 -14 -58 -52 -95 -85 -38 -33 -83 -73 -101 -90 -17 -16 -53 -48 -80 -70
-26 -22 -67 -59 -90 -82 -22 -24 -44 -43 -48 -43 -4 0 -28 -21 -55 -47 -26
-27 -74 -70 -105 -98 -32 -27 -68 -59 -80 -70 -13 -11 -54 -47 -92 -80 -66
-58 -129 -114 -207 -186 l-37 -34 2 -453 c3 -453 3 -453 23 -435 11 10 38 33
60 52 39 33 171 150 226 201 15 14 50 45 79 70 29 25 74 65 100 90 27 25 72
66 102 91 72 63 118 104 183 164 29 28 77 70 106 95 28 25 66 58 83 74 17 15
60 54 95 85 36 31 74 65 86 76 24 23 172 155 223 200 19 17 47 41 62 55 27 25
79 72 265 236 55 49 102 91 105 94 3 3 43 39 90 80 46 41 91 82 100 90 14 13
108 97 195 175 111 98 180 159 300 265 141 124 155 137 245 220 27 25 75 68
106 95 31 28 71 64 89 80 18 17 59 53 90 80 32 28 73 64 91 81 18 17 61 55 95
85 34 30 74 65 89 79 61 56 131 118 200 180 90 80 108 96 140 124 14 12 34 32
44 44 l19 22 -511 0 c-407 0 -513 -3 -519 -13z"/>
<path d="M5279 10717 c-25 -23 -67 -62 -95 -86 -154 -135 -180 -158 -205 -181
-15 -14 -42 -38 -61 -55 -125 -112 -205 -183 -223 -200 -11 -11 -54 -50 -95
-86 -41 -37 -117 -104 -169 -150 -52 -46 -136 -120 -185 -164 -50 -44 -103
-91 -117 -105 -14 -14 -57 -53 -95 -86 -38 -34 -83 -75 -100 -90 -17 -16 -57
-51 -90 -79 -59 -50 -144 -125 -199 -176 -16 -15 -44 -40 -61 -55 -18 -16 -55
-49 -84 -74 -29 -25 -74 -65 -100 -90 -27 -25 -72 -66 -102 -91 -72 -63 -118
-104 -183 -164 -29 -27 -77 -70 -106 -95 -28 -25 -66 -58 -83 -74 -17 -15 -60
-54 -95 -85 -36 -31 -74 -65 -86 -76 -12 -11 -59 -54 -105 -95 -46 -41 -93
-84 -105 -95 -12 -11 -45 -40 -74 -65 -29 -25 -69 -61 -90 -80 -20 -19 -86
-78 -146 -130 -61 -52 -117 -101 -125 -110 -8 -8 -53 -49 -100 -90 -47 -41
-87 -78 -90 -81 -3 -3 -50 -46 -105 -95 -145 -128 -167 -147 -185 -164 -9 -8
-49 -44 -90 -80 -41 -35 -93 -81 -115 -101 -22 -21 -65 -59 -95 -85 -30 -26
-62 -54 -71 -63 -9 -9 -49 -45 -89 -81 -40 -36 -95 -85 -122 -110 l-48 -45 2
-947 3 -946 51 46 c28 26 64 59 80 73 113 98 203 178 224 199 14 14 57 52 94
85 38 33 81 71 96 85 64 60 138 127 170 154 19 15 55 47 80 70 25 23 101 91
170 151 68 61 136 121 151 135 14 14 44 40 65 59 84 73 180 158 215 191 20 19
63 58 95 85 62 53 149 131 181 161 11 11 51 46 88 79 38 33 83 74 101 90 18
17 58 53 89 80 32 28 74 65 94 82 20 18 60 54 89 80 30 27 68 62 86 78 17 17
60 55 95 85 35 30 76 66 91 80 14 14 41 38 60 54 19 15 58 49 85 75 28 26 73
67 100 91 43 36 203 182 255 230 8 8 31 28 50 44 19 15 55 47 80 70 25 23 101
91 170 151 69 61 147 131 175 156 70 65 169 153 255 229 41 36 84 74 96 85 12
11 51 45 85 75 34 30 74 66 89 80 15 14 58 52 95 85 38 33 74 66 81 73 23 23
33 17 129 -73 23 -22 51 -47 62 -55 12 -8 50 -42 85 -75 35 -33 93 -85 129
-117 35 -31 78 -69 94 -85 45 -41 247 -220 354 -313 77 -67 98 -85 311 -280
15 -14 60 -54 100 -90 41 -36 78 -70 84 -75 6 -6 65 -58 131 -115 148 -131
192 -169 220 -195 12 -11 59 -54 105 -95 46 -41 93 -84 105 -95 11 -11 50 -45
85 -75 35 -30 75 -66 90 -80 14 -14 52 -47 83 -73 31 -27 75 -65 96 -85 79
-74 139 -128 192 -174 31 -26 69 -60 85 -75 17 -15 48 -43 70 -61 21 -19 62
-55 89 -81 51 -48 277 -250 394 -351 35 -30 76 -66 90 -79 14 -12 62 -55 105
-95 44 -39 91 -82 106 -96 14 -14 43 -40 65 -59 22 -19 74 -64 115 -101 69
-62 218 -194 299 -265 19 -17 46 -41 60 -55 57 -55 189 -170 195 -170 9 0 7
2283 -2 2295 -4 6 -36 35 -71 65 -36 30 -74 64 -86 75 -12 11 -47 43 -79 70
-73 64 -123 109 -161 144 -16 15 -70 63 -120 106 -49 44 -94 85 -100 91 -9 11
-214 192 -354 314 -74 63 -87 76 -198 178 l-83 75 0 839 0 838 -480 0 -480 0
0 -400 c0 -320 -3 -400 -13 -400 -7 0 -31 17 -54 38 -23 20 -63 57 -91 82 -27
25 -75 68 -107 95 -32 28 -74 66 -95 85 -43 40 -155 140 -186 167 -12 10 -59
52 -105 94 -46 42 -100 90 -119 105 -19 16 -44 38 -55 50 -11 12 -53 50 -94
85 -41 35 -84 73 -96 84 -11 11 -37 33 -55 49 -42 36 -223 197 -230 205 -3 3
-25 24 -50 46 -109 96 -218 193 -265 237 l-52 48 -44 -43z"/>
<path d="M3670 6010 l0 -550 548 2 547 3 3 548 2 547 -550 0 -550 0 0 -550z"/>
<path d="M5500 6010 l0 -550 550 0 550 0 0 550 0 550 -550 0 -550 0 0 -550z"/>
<path d="M3677 4823 c-4 -3 -7 -251 -7 -550 l0 -543 550 0 550 0 -2 548 -3
547 -541 3 c-297 1 -544 -1 -547 -5z"/>
<path d="M5500 4280 l0 -550 550 0 550 0 0 550 0 550 -550 0 -550 0 0 -550z"/>
<path d="M5555 3080 c-70 -22 -134 -73 -170 -135 -50 -84 -55 -141 -55 -630 0
-247 4 -476 10 -508 33 -205 192 -316 410 -286 151 21 250 118 279 274 6 32
11 114 11 182 l0 123 -110 0 -110 0 0 -142 c0 -172 -11 -205 -75 -226 -86 -28
-157 6 -176 85 -13 57 -11 934 2 988 16 62 38 78 113 83 59 4 66 2 97 -26 l34
-30 3 -131 4 -131 110 0 111 0 -5 133 c-4 102 -10 145 -27 188 -24 63 -75 128
-126 159 -83 51 -223 64 -330 30z"/>
<path d="M3560 2460 c0 -652 2 -684 46 -772 64 -127 213 -193 377 -167 124 19
205 79 254 184 37 83 44 209 41 815 l-3 555 -112 3 -113 3 0 -633 c0 -718 3
-691 -75 -716 -82 -27 -165 9 -179 79 -3 18 -6 310 -6 650 l0 619 -115 0 -115
0 0 -620z"/>
<path d="M4460 2310 l0 -770 115 0 115 0 0 250 0 250 45 90 c25 50 51 90 58
90 7 0 50 -131 112 -340 l100 -340 118 0 c64 0 117 2 117 5 0 3 -63 215 -140
472 -77 256 -140 478 -140 492 0 14 62 149 138 299 l139 272 -112 0 -111 0
-149 -315 c-85 -180 -154 -315 -162 -315 -10 0 -13 60 -13 315 l0 315 -115 0
-115 0 0 -770z"/>
<path d="M6385 3068 c-5 -17 -245 -1500 -245 -1516 0 -17 210 -17 210 1 0 6 9
71 20 142 11 72 20 133 20 138 0 4 66 6 147 5 l148 -3 20 -145 20 -145 113 -3
c111 -3 112 -2 111 20 0 13 -55 358 -122 768 l-122 745 -158 3 c-121 2 -158 0
-162 -10z m214 -630 c28 -205 51 -379 51 -385 0 -10 -30 -13 -116 -13 l-117 0
6 33 c2 17 27 191 53 385 31 220 53 352 60 352 7 0 30 -139 63 -372z"/>
</g>
</svg>
